<?xml version="1.0" standalone="no"?>
<!DOCTYPE svg PUBLIC "-//W3C//DTD SVG 20010904//EN"
 "http://www.w3.org/TR/2001/REC-SVG-20010904/DTD/svg10.dtd">
<svg version="1.0" xmlns="http://www.w3.org/2000/svg"
 width="703.000000pt" height="703.000000pt" viewBox="0 0 703.000000 703.000000"
 preserveAspectRatio="xMidYMid meet">
<metadata>
Created by potrace 1.14, written by Peter Selinger 2001-2017
</metadata>
<g transform="translate(0.000000,703.000000) scale(0.100000,-0.100000)"
fill="#000000" stroke="none">
<path d="M355 4919 c-192 -165 -350 -306 -350 -314 0 -13 22 -40 124 -150 80
-86 143 -155 251 -275 52 -58 118 -130 147 -160 28 -30 63 -68 78 -85 l26 -30
-106 -100 c-58 -55 -105 -105 -105 -110 0 -10 30 -45 123 -145 55 -59 193
-210 224 -246 10 -12 61 -67 113 -124 52 -57 105 -114 117 -128 l23 -25 -21
-18 c-11 -9 -52 -41 -90 -70 -38 -29 -69 -58 -69 -63 0 -6 28 -40 61 -76 34
-36 107 -114 163 -174 55 -60 115 -124 131 -141 37 -40 230 -245 282 -301 56
-60 241 -259 294 -317 26 -27 51 -48 56 -46 5 2 -64 177 -154 389 -90 212
-220 520 -290 684 l-126 300 71 65 c40 36 72 71 72 78 0 6 -18 43 -40 82 -22
38 -49 87 -61 108 -12 21 -95 170 -186 331 -91 161 -163 294 -162 296 2 1 22
16 44 32 22 16 42 32 45 35 3 3 15 11 28 18 12 6 22 18 22 26 0 8 -21 67 -46
132 -25 65 -61 159 -80 208 -20 50 -39 99 -44 110 -4 11 -27 70 -50 130 -23
61 -48 124 -55 140 -7 17 -30 76 -51 132 -22 57 -43 103 -49 103 -5 0 -167
-136 -360 -301z"/>
<path d="M3349 5216 c-2 -2 -27 -6 -55 -10 -100 -12 -205 -35 -308 -70 -101
-34 -266 -103 -276 -117 -3 -3 -19 -13 -36 -22 -38 -19 -171 -108 -201 -133
-12 -11 -35 -29 -50 -41 -15 -12 -38 -31 -49 -42 -12 -11 -25 -17 -30 -13 -4
4 -4 2 -1 -4 4 -6 -19 -36 -51 -67 -31 -30 -67 -69 -79 -85 -12 -15 -34 -41
-47 -55 -14 -15 -22 -27 -18 -27 4 0 -2 -7 -12 -15 -11 -8 -16 -15 -12 -15 7
0 -42 -70 -57 -81 -5 -3 -8 -9 -7 -13 0 -3 -15 -35 -35 -69 -90 -162 -177
-429 -192 -591 -3 -39 -11 -74 -17 -78 -8 -6 -7 -8 1 -8 7 0 10 -9 6 -22 -2
-13 -4 -34 -4 -47 1 -13 -5 -31 -11 -39 -9 -11 -9 -14 -1 -9 8 5 11 -9 11 -51
-1 -32 2 -64 6 -70 4 -7 2 -12 -4 -12 -6 0 -9 -4 -6 -9 6 -8 13 -56 20 -128 2
-17 7 -36 10 -42 4 -6 1 -11 -6 -11 -10 0 -10 -2 1 -9 7 -5 11 -13 7 -19 -3
-6 -2 -14 4 -17 6 -4 10 -14 9 -23 -1 -10 1 -24 4 -32 4 -8 8 -24 10 -35 2
-11 7 -28 12 -37 4 -10 8 -29 9 -42 0 -13 4 -22 9 -19 7 4 11 -28 7 -57 -1 -8
2 -11 6 -7 10 10 46 -81 38 -95 -4 -6 -2 -8 3 -5 10 6 27 -27 24 -45 -1 -5 4
-8 10 -8 5 0 7 -5 4 -10 -3 -5 -1 -10 4 -10 6 0 11 -7 11 -15 0 -8 5 -15 10
-15 6 0 10 -9 10 -20 0 -11 4 -20 9 -20 5 0 13 -10 17 -22 4 -13 5 -23 3 -23
-2 0 9 -12 24 -27 15 -15 27 -34 27 -42 0 -8 6 -19 13 -23 24 -15 57 -65 50
-77 -3 -6 -3 -8 2 -4 4 4 14 0 23 -8 13 -14 13 -17 1 -26 -11 -8 -11 -9 2 -5
14 5 58 -32 50 -42 -1 -2 8 -9 21 -15 13 -6 23 -16 23 -21 0 -12 52 -65 64
-65 14 0 61 -56 54 -64 -5 -4 -1 -6 7 -4 8 2 14 -3 12 -10 -1 -8 2 -11 8 -7
13 8 42 -20 32 -30 -4 -5 0 -6 10 -2 18 6 52 -25 41 -38 -5 -5 0 -3 10 4 9 7
17 9 17 4 0 -5 20 -22 45 -37 24 -16 42 -32 39 -37 -3 -5 1 -6 9 -4 7 3 29 -5
49 -19 20 -13 40 -21 44 -18 4 4 5 2 1 -3 -3 -6 4 -17 16 -25 21 -12 21 -12 7
5 -14 17 -14 18 8 6 12 -6 22 -16 22 -22 0 -6 4 -8 9 -4 11 6 61 -15 61 -26 0
-5 7 -6 15 -3 8 4 15 1 15 -5 0 -6 3 -10 8 -9 19 4 91 -24 88 -35 -1 -6 -1 -9
1 -4 6 10 43 9 43 -2 0 -5 12 -8 26 -8 15 0 30 -7 35 -14 7 -12 9 -11 9 1 0
10 3 11 8 4 4 -6 17 -10 29 -9 19 1 21 -1 10 -13 -10 -13 -9 -14 10 -4 25 14
36 15 29 4 -2 -4 8 -8 22 -8 61 -2 73 -4 68 -12 -3 -5 1 -9 9 -9 8 0 12 4 10
7 -3 4 8 7 24 6 25 -1 28 -3 18 -15 -10 -12 -9 -13 3 -6 16 10 250 14 250 4 0
-3 7 -6 15 -6 8 0 12 3 10 7 -3 4 18 6 45 6 28 -1 50 1 50 5 0 11 55 7 62 -5
5 -7 8 -3 8 9 l1 20 16 -20 c14 -18 15 -18 9 -1 -5 16 -2 18 23 14 17 -2 28
-1 25 4 -8 13 11 9 25 -4 10 -11 12 -10 9 2 -2 10 4 15 20 14 12 -1 22 3 22 7
0 5 5 9 11 9 5 0 7 -6 3 -12 -4 -7 1 -5 12 4 11 10 36 19 56 20 20 2 34 7 30
12 -3 5 5 7 16 4 12 -4 20 -2 16 3 -3 5 0 10 5 10 21 3 26 4 40 13 10 7 12 6
6 -4 -4 -7 6 -2 23 10 26 19 34 21 47 10 13 -11 14 -10 9 5 -5 13 -4 16 4 11
7 -4 12 -2 12 3 0 6 3 10 8 9 4 -1 19 6 34 16 16 10 35 16 43 12 8 -3 14 -2
14 2 -3 20 3 23 18 11 9 -8 14 -9 11 -4 -4 6 -4 15 0 20 12 16 52 36 62 30 5
-3 12 0 16 6 5 8 2 10 -7 5 -8 -4 -5 0 5 8 23 19 40 21 30 4 -4 -7 -3 -8 5 -4
6 4 9 10 7 14 -2 4 2 13 10 20 8 7 14 10 14 7 0 -3 16 9 36 27 20 18 40 32 45
31 5 -2 13 6 19 18 8 14 18 18 33 15 12 -3 16 -3 9 0 -9 4 23 42 92 111 58 58
106 110 106 115 0 5 5 6 10 3 6 -3 10 0 10 8 0 7 9 22 19 34 10 11 26 34 35
52 10 18 24 35 31 38 8 3 12 9 9 14 -3 5 0 9 6 9 6 0 8 5 5 10 -3 6 -1 10 4
10 6 0 11 6 11 13 0 7 8 22 19 33 10 11 22 31 26 45 4 13 15 30 24 37 9 8 11
11 4 8 -8 -5 -8 0 0 18 7 13 15 22 19 20 4 -3 5 2 2 10 -4 11 0 16 12 17 11 0
13 3 7 6 -10 3 -9 12 4 36 9 18 18 38 19 45 1 8 6 21 10 30 11 25 11 24 19 59
4 18 11 30 16 28 4 -3 6 4 4 15 -2 11 0 20 4 20 5 0 8 8 8 18 -1 9 4 40 11 67
7 28 14 61 16 75 3 14 5 25 6 25 1 0 3 14 3 30 1 17 4 35 7 40 3 6 5 28 4 50
-1 22 3 45 8 52 5 7 5 14 -2 18 -6 3 -7 11 -4 17 10 15 5 136 -11 308 -2 19
-4 35 -5 35 -1 0 -4 16 -7 35 -2 19 -9 43 -15 53 -6 12 -6 17 0 13 5 -3 3 13
-5 37 -8 23 -16 49 -18 57 -20 90 -162 410 -196 440 -3 3 -21 28 -39 55 -40
60 -131 174 -157 196 -10 9 -25 25 -34 35 -20 25 -91 88 -154 139 -208 167
-505 300 -759 341 -21 3 -48 8 -60 11 -26 6 -400 15 -407 9z"/>
<path d="M6293 5162 c-31 -81 -94 -243 -227 -584 -64 -164 -116 -303 -116
-310 0 -7 32 -35 70 -63 39 -27 70 -51 70 -54 0 -2 -19 -36 -41 -75 -56 -96
-70 -121 -109 -191 -18 -33 -36 -64 -40 -70 -21 -27 -270 -471 -270 -481 0 -6
15 -23 33 -37 17 -14 52 -44 77 -66 40 -36 43 -42 33 -63 -6 -13 -127 -297
-269 -633 -141 -335 -265 -629 -275 -652 -35 -78 -23 -83 40 -15 24 26 94 101
155 166 61 66 125 134 141 152 30 31 206 220 261 280 16 16 81 86 144 153 63
68 141 151 172 185 32 33 58 66 58 71 0 6 -40 42 -90 80 -95 73 -93 69 -50
115 8 9 49 54 91 101 42 46 87 96 100 110 13 14 62 67 109 119 47 51 90 98 95
104 98 107 165 185 165 192 0 5 -47 54 -105 109 l-105 100 27 31 c16 17 66 73
113 124 47 51 96 104 109 119 13 14 42 46 65 71 22 25 88 97 146 160 58 63
117 128 133 145 16 17 26 39 25 51 -2 14 -123 125 -348 317 -190 163 -349 297
-355 297 -5 0 -20 -26 -32 -58z"/>
<path d="M4724 2318 l-19 -23 23 19 c12 11 22 21 22 23 0 8 -8 2 -26 -19z"/>
<path d="M2370 2250 c0 -5 5 -10 11 -10 5 0 7 5 4 10 -3 6 -8 10 -11 10 -2 0
-4 -4 -4 -10z"/>
<path d="M4540 2149 c0 -5 5 -7 10 -4 6 3 10 8 10 11 0 2 -4 4 -10 4 -5 0 -10
-5 -10 -11z"/>
<path d="M2825 1950 c10 -11 20 -20 23 -20 3 0 -3 9 -13 20 -10 11 -20 20 -23
20 -3 0 3 -9 13 -20z"/>
<path d="M3428 1813 c7 -3 16 -2 19 1 4 3 -2 6 -13 5 -11 0 -14 -3 -6 -6z"/>
</g>
</svg>
